<?xml version="1.0" encoding="UTF-8"?>
<!DOCTYPE svg PUBLIC "-//W3C//DTD SVG 1.1//EN" "http://www.w3.org/Graphics/SVG/1.1/DTD/svg11.dtd">
<svg xmlns="http://www.w3.org/2000/svg" version="1.1" width="512px" height="512px" style="shape-rendering:geometricPrecision; text-rendering:geometricPrecision; image-rendering:optimizeQuality; fill-rule:evenodd; clip-rule:evenodd" xmlns:xlink="http://www.w3.org/1999/xlink">
<g><path style="opacity:0.975" fill="#fefffe" d="M 511.5,115.5 C 511.5,227.5 511.5,339.5 511.5,451.5C 508.001,458.821 502.168,462.821 494,463.5C 444.105,447.38 392.938,440.546 340.5,443C 311.037,445.283 282.704,452.116 255.5,463.5C 203.553,442.71 149.887,436.877 94.5,446C 84.7773,447.343 75.1106,449.009 65.5,451C 49.1669,454.947 32.8336,458.78 16.5,462.5C 8.45708,462.45 2.79042,458.783 -0.5,451.5C -0.5,339.5 -0.5,227.5 -0.5,115.5C 1.97883,110.857 5.64549,107.357 10.5,105C 24.4491,103.591 38.4491,103.091 52.5,103.5C 52.3334,89.496 52.5001,75.496 53,61.5C 55.206,54.9795 59.706,51.1462 66.5,50C 109.917,44.5405 151.917,49.8738 192.5,66C 217.136,76.6437 238.136,92.1437 255.5,112.5C 282.39,81.7085 316.056,62.2085 356.5,54C 385.644,47.8621 414.977,46.5287 444.5,50C 451.294,51.1462 455.794,54.9795 458,61.5C 458.5,75.496 458.667,89.496 458.5,103.5C 472.551,103.091 486.551,103.591 500.5,105C 505.355,107.357 509.021,110.857 511.5,115.5 Z M 87.5,83.5 C 124.119,81.4904 158.786,88.6571 191.5,105C 210.058,116.015 225.225,130.515 237,148.5C 237.667,230.5 237.667,312.5 237,394.5C 217.391,377.274 194.891,365.107 169.5,358C 142.674,350.563 115.34,347.397 87.5,348.5C 87.5,260.167 87.5,171.833 87.5,83.5 Z M 399.5,83.5 C 407.5,83.5 415.5,83.5 423.5,83.5C 423.5,171.833 423.5,260.167 423.5,348.5C 380.859,346.328 340.526,354.828 302.5,374C 292.206,379.73 282.706,386.564 274,394.5C 273.333,312.5 273.333,230.5 274,148.5C 294.35,118.047 322.517,98.5466 358.5,90C 372.193,87.0848 385.859,84.9181 399.5,83.5 Z M 34.5,139.5 C 40.5,139.5 46.5,139.5 52.5,139.5C 52.3333,217.501 52.5,295.501 53,373.5C 56.1948,381.032 61.8615,385.032 70,385.5C 108.087,380.948 144.921,385.782 180.5,400C 186.822,402.826 192.822,406.159 198.5,410C 143.173,403.554 88.5065,407.388 34.5,421.5C 34.5,327.5 34.5,233.5 34.5,139.5 Z M 458.5,139.5 C 464.5,139.5 470.5,139.5 476.5,139.5C 476.5,233.5 476.5,327.5 476.5,421.5C 422.494,407.388 367.827,403.554 312.5,410C 336.438,395.466 362.438,387.132 390.5,385C 407.359,382.851 424.193,383.018 441,385.5C 449.139,385.032 454.805,381.032 458,373.5C 458.5,295.501 458.667,217.501 458.5,139.5 Z"/></g>
</svg>
